<svg width="188" height="187" viewBox="0 0 188 187" fill="none" xmlns="http://www.w3.org/2000/svg">
<path d="M35.7317 158.744C35.2373 158.269 34.7443 157.793 34.2485 157.32C24.8106 148.295 15.3606 139.281 5.94619 130.231C5.00985 129.33 4.36601 129.264 3.5398 130.306C2.73857 131.313 1.89272 132.308 0.932779 133.156C-0.290732 134.237 -0.289419 135.036 0.812143 136.318C7.07655 143.605 13.433 150.826 19.3892 158.363C26.363 167.188 32.9594 176.314 39.722 185.307C40.101 185.812 40.5036 186.299 41.0583 187C41.6091 186.337 42.0773 185.847 42.4602 185.299C54.235 168.386 67.2178 152.442 80.7651 136.948C82.8489 134.565 82.9276 135.015 80.7127 132.623C77.4054 129.051 77.4369 129.072 73.9131 132.454C64.9959 141.01 56.0562 149.537 47.1202 158.073C46.8828 158.3 46.6009 158.481 46.1773 158.806C46.0907 158.292 45.9937 157.969 45.9898 157.646C45.818 143.947 46.2219 130.296 48.8918 116.796C54.4771 88.5479 67.0506 64.1177 88.1703 44.4405C105.26 28.5191 125.388 18.2916 148.011 12.9222C160.295 10.0066 172.763 8.88039 185.366 9.03601C187.964 9.06898 187.967 9.03733 187.977 6.4264C187.984 4.95872 187.933 3.48714 187.995 2.02206C188.061 0.496398 187.416 0.0216676 185.912 0.00850213C175.088 -0.0824847 164.326 0.545175 153.652 2.45328C133.493 6.05452 114.763 13.2925 97.7889 24.8625C70.4228 43.5134 52.2728 68.9767 42.7889 100.742C38.9936 113.451 36.8823 126.463 36.4275 139.725C36.236 145.3 36.236 150.88 36.1507 156.456C36.1403 157.153 36.1494 157.85 36.1494 158.545C36.0104 158.611 35.8701 158.676 35.7324 158.742L35.7317 158.744Z" fill="#FF267E"/>
</svg>
