<svg width="634" height="522" viewBox="0 0 634 522" fill="none" xmlns="http://www.w3.org/2000/svg">
<path fill-rule="evenodd" clip-rule="evenodd" d="M380.66 190.353C297.97 142.613 192.24 170.944 144.5 253.633C96.758 336.323 125.089 442.057 207.78 489.798C290.47 537.539 396.2 509.207 443.94 426.518C491.68 343.829 463.35 238.094 380.66 190.353ZM384.88 183.05C298.16 132.98 187.26 162.694 137.19 249.417C87.125 336.14 116.839 447.032 203.56 497.101C290.28 547.171 401.18 517.457 451.25 430.735C501.32 344.012 471.6 233.119 384.88 183.05Z" fill="#1B1B94"/>
<path d="M298.58 340.967L388.53 185.158L381.23 180.942L291.27 336.75L298.58 340.967Z" fill="#1B1B94"/>
<path fill-rule="evenodd" clip-rule="evenodd" d="M207.17 499.184C293.17 546.255 401.45 516.283 450.82 431.02L306.4 347.637C303.08 352.964 296.8 355.414 290.94 354.084L207.17 499.184ZM281.39 333.198C278.43 338.735 279.45 345.394 283.53 349.803L199.76 494.901C116.08 443.926 87.947 335.23 137.08 249.883L281.39 333.198Z" fill="#1B1B94"/>
<path d="M281.63 332.766C285.61 325.856 294.45 323.488 301.36 327.478C308.27 331.468 310.64 340.304 306.65 347.214L281.63 332.766Z" fill="#1B1B94"/>
<path fill-rule="evenodd" clip-rule="evenodd" d="M621.44 250.569L616.02 252.056C612.22 238.207 607.48 224.444 601.77 210.842C596.07 197.24 589.56 184.219 582.34 171.808L587.2 168.979C594.54 181.6 601.16 194.84 606.96 208.666C612.76 222.492 617.58 236.486 621.44 250.569ZM533.07 99.054L529.12 103.05C508.28 82.427 484.95 64.808 459.83 50.488L462.62 45.604C488.15 60.164 511.89 78.081 533.07 99.054ZM380.75 12.145L379.31 17.581C351.36 10.21 322.36 6.44001 293.05 6.56701L293.02 0.944021C322.83 0.816021 352.32 4.65001 380.75 12.145ZM205.42 12.945L206.9 18.367C193.05 22.166 179.29 26.904 165.69 32.613C152.09 38.322 139.07 44.827 126.655 52.051L123.827 47.192C136.45 39.846 149.69 33.232 163.51 27.429C177.34 21.625 191.33 16.808 205.42 12.945ZM53.9009 101.315L57.8969 105.27C37.2749 126.104 19.6549 149.442 5.33594 174.557L0.450928 171.773C15.0119 146.235 32.9289 122.503 53.9009 101.315ZM622.24 454.012L616.81 452.578C624.18 424.623 627.95 395.625 627.82 366.31L633.44 366.286C633.57 396.098 629.74 425.586 622.24 454.012Z" fill="white"/>
</svg>
