<svg width="236" height="91" viewBox="0 0 236 91" fill="none" xmlns="http://www.w3.org/2000/svg">
<path d="M0 1.3786L26.5859 0.484558V88.9946L0 88.3986V1.3786Z" fill="#D0D0D0"/>
<path d="M33.1572 2.57065V87.5045L26.5854 88.9946V0.484558L33.1572 2.57065Z" fill="#B2B2B2"/>
<path d="M0 1.3786L26.5859 0.484558V88.9946L0 88.3986V1.3786Z" fill="url(#paint0_linear_102_17872)"/>
<path d="M33.1572 2.57065V87.5045L26.5854 88.9946V0.484558L33.1572 2.57065Z" fill="url(#paint1_linear_102_17872)"/>
<path d="M77.076 2.27254L103.363 51.1468L101.272 32.9679L101.571 1.67651L129.053 0.782471V90.4846L101.571 89.8885L74.9849 40.1203L77.076 58.8951L76.7772 89.2925L51.3862 88.3985V3.46459L77.076 2.27254Z" fill="#D0D0D0"/>
<path d="M84.5441 4.3588L101.87 35.9482L103.363 51.1469L77.0762 2.27271L84.5441 4.3588Z" fill="#B2B2B2"/>
<path d="M134.729 2.57061V88.9946L129.053 90.4846V0.782532L134.729 2.57061Z" fill="#B2B2B2"/>
<path d="M84.5438 87.5042L76.7772 89.2923L77.0759 58.8949L74.9849 40.1201L84.5438 58.0009V87.5042Z" fill="#B2B2B2"/>
<path d="M77.076 2.27254L103.363 51.1468L101.272 32.9679L101.571 1.67651L129.053 0.782471V90.4846L101.571 89.8885L74.9849 40.1203L77.076 58.8951L76.7772 89.2925L51.3862 88.3985V3.46459L77.076 2.27254Z" fill="url(#paint2_linear_102_17872)"/>
<path d="M84.5441 4.3588L101.87 35.9482L103.363 51.1469L77.0762 2.27271L84.5441 4.3588Z" fill="url(#paint3_linear_102_17872)"/>
<path d="M134.729 2.57061V88.9946L129.053 90.4846V0.782532L134.729 2.57061Z" fill="url(#paint4_linear_102_17872)"/>
<path d="M84.5438 87.5042L76.7772 89.2923L77.0759 58.8949L74.9849 40.1201L84.5438 58.0009V87.5042Z" fill="url(#paint5_linear_102_17872)"/>
<path d="M185.816 23.1336V38.3323H178.348V21.9416L185.816 23.1336Z" fill="#B2B2B2"/>
<path d="M186.115 86.0148L178.348 87.5049V59.4916H186.115V86.0148Z" fill="#B2B2B2"/>
<path d="M236 87.2064L230.026 88.6965L209.414 55.0209L215.986 54.7229L236 87.2064Z" fill="#B2B2B2"/>
<path d="M229.13 27.9019C230.923 47.5708 209.415 55.0212 209.415 55.0212L215.987 54.7232C215.987 54.7232 235.403 48.4649 234.806 29.392C234.208 7.93502 214.194 3.46482 207.025 2.27277C216.883 4.65688 227.637 11.2132 229.13 27.9019Z" fill="#B2B2B2"/>
<path d="M194.777 23.1336C192.985 22.2396 191.193 21.9416 189.998 21.9416C187.608 21.9416 178.348 22.2396 178.348 22.2396L185.816 23.1336H194.777Z" fill="#B2B2B2"/>
<path d="M209.414 55.021C209.414 55.021 230.922 47.5707 229.13 27.9018C226.74 1.08058 200.154 0.484558 193.284 0.484558C186.712 0.782572 152.957 1.97463 152.957 1.97463V86.6105L178.348 87.5045V59.4912H187.011L200.453 88.1006L230.026 88.9946L209.414 55.021ZM189.699 38.3323C187.907 38.3323 178.348 38.3323 178.348 38.3323V22.2395C178.348 22.2395 187.608 21.9415 189.998 21.9415C192.388 21.9415 199.258 23.4316 199.258 30.5839C199.258 35.6502 193.582 38.3323 189.699 38.3323Z" fill="#D0D0D0"/>
<path d="M185.816 23.1336V38.3323H178.348V21.9416L185.816 23.1336Z" fill="url(#paint6_linear_102_17872)"/>
<path d="M186.115 86.0148L178.348 87.5049V59.4916H186.115V86.0148Z" fill="url(#paint7_linear_102_17872)"/>
<path d="M236 87.2064L230.026 88.6965L209.414 55.0209L215.986 54.7229L236 87.2064Z" fill="url(#paint8_linear_102_17872)"/>
<path d="M229.13 27.9019C230.923 47.5708 209.415 55.0212 209.415 55.0212L215.987 54.7232C215.987 54.7232 235.403 48.4649 234.806 29.392C234.208 7.93502 214.194 3.46482 207.025 2.27277C216.883 4.65688 227.637 11.2132 229.13 27.9019Z" fill="url(#paint9_linear_102_17872)"/>
<path d="M194.777 23.1336C192.985 22.2396 191.193 21.9416 189.998 21.9416C187.608 21.9416 178.348 22.2396 178.348 22.2396L185.816 23.1336H194.777Z" fill="url(#paint10_linear_102_17872)"/>
<path d="M209.414 55.021C209.414 55.021 230.922 47.5707 229.13 27.9018C226.74 1.08058 200.154 0.484558 193.284 0.484558C186.712 0.782572 152.957 1.97463 152.957 1.97463V86.6105L178.348 87.5045V59.4912H187.011L200.453 88.1006L230.026 88.9946L209.414 55.021ZM189.699 38.3323C187.907 38.3323 178.348 38.3323 178.348 38.3323V22.2395C178.348 22.2395 187.608 21.9415 189.998 21.9415C192.388 21.9415 199.258 23.4316 199.258 30.5839C199.258 35.6502 193.582 38.3323 189.699 38.3323Z" fill="url(#paint11_linear_102_17872)"/>
<defs>
<linearGradient id="paint0_linear_102_17872" x1="20.5464" y1="-0.481602" x2="6.35648" y2="89.3211" gradientUnits="userSpaceOnUse">
<stop offset="0.1047" stop-color="#F7F7F7"/>
<stop offset="0.6753" stop-color="#E0E0E0"/>
<stop offset="1" stop-color="#E8E8E8"/>
</linearGradient>
<linearGradient id="paint1_linear_102_17872" x1="36.5121" y1="2.04108" x2="22.8551" y2="88.4735" gradientUnits="userSpaceOnUse">
<stop stop-color="#C7C7C7"/>
<stop offset="0.6532" stop-color="#B0B0B0"/>
<stop offset="1" stop-color="#B3B3B3"/>
</linearGradient>
<linearGradient id="paint2_linear_102_17872" x1="98.3479" y1="-4.15383" x2="82.9175" y2="93.4998" gradientUnits="userSpaceOnUse">
<stop offset="0.1047" stop-color="#F7F7F7"/>
<stop offset="0.6753" stop-color="#E0E0E0"/>
<stop offset="1" stop-color="#E8E8E8"/>
</linearGradient>
<linearGradient id="paint3_linear_102_17872" x1="93.7446" y1="5.04632" x2="86.8584" y2="48.6275" gradientUnits="userSpaceOnUse">
<stop stop-color="#C7C7C7"/>
<stop offset="0.6532" stop-color="#B0B0B0"/>
<stop offset="1" stop-color="#5C5C5C"/>
</linearGradient>
<linearGradient id="paint4_linear_102_17872" x1="138.769" y1="2.23296" x2="124.928" y2="89.8286" gradientUnits="userSpaceOnUse">
<stop stop-color="#C7C7C7"/>
<stop offset="0.6532" stop-color="#B0B0B0"/>
<stop offset="1" stop-color="#B3B3B3"/>
</linearGradient>
<linearGradient id="paint5_linear_102_17872" x1="79.6535" y1="40.1528" x2="79.6535" y2="89.1534" gradientUnits="userSpaceOnUse">
<stop stop-color="#383838"/>
<stop offset="0.6532" stop-color="#B0B0B0"/>
<stop offset="1" stop-color="#B3B3B3"/>
</linearGradient>
<linearGradient id="paint6_linear_102_17872" x1="183.281" y1="22.8183" x2="180.783" y2="38.6232" gradientUnits="userSpaceOnUse">
<stop stop-color="#8C8C8C"/>
<stop offset="0.3641" stop-color="#C0C1C4"/>
<stop offset="1" stop-color="#B3B3B3"/>
</linearGradient>
<linearGradient id="paint7_linear_102_17872" x1="184.26" y1="59.1414" x2="179.759" y2="87.6253" gradientUnits="userSpaceOnUse">
<stop stop-color="#8C8C8C"/>
<stop offset="0.3641" stop-color="#C0C1C4"/>
<stop offset="1" stop-color="#B3B3B3"/>
</linearGradient>
<linearGradient id="paint8_linear_102_17872" x1="225.06" y1="56.0881" x2="220.145" y2="87.1879" gradientUnits="userSpaceOnUse">
<stop stop-color="#C7C7C7"/>
<stop offset="0.6532" stop-color="#B0B0B0"/>
<stop offset="1" stop-color="#B3B3B3"/>
</linearGradient>
<linearGradient id="paint9_linear_102_17872" x1="223.046" y1="4.60353" x2="214.956" y2="55.8004" gradientUnits="userSpaceOnUse">
<stop stop-color="#C7C7C7"/>
<stop offset="0.3132" stop-color="#E1E2E6"/>
<stop offset="0.6532" stop-color="#B0B0B0"/>
<stop offset="1" stop-color="#B3B3B3"/>
</linearGradient>
<linearGradient id="paint10_linear_102_17872" x1="178.311" y1="22.5248" x2="194.801" y2="22.5248" gradientUnits="userSpaceOnUse">
<stop offset="0.1047" stop-color="#707070"/>
<stop offset="0.6753" stop-color="#DBDBDB"/>
<stop offset="1" stop-color="#DBDBDB"/>
</linearGradient>
<linearGradient id="paint11_linear_102_17872" x1="198.585" y1="0.507804" x2="184.202" y2="91.5355" gradientUnits="userSpaceOnUse">
<stop offset="0.1047" stop-color="#F7F7F7"/>
<stop offset="0.6753" stop-color="#E0E0E0"/>
<stop offset="1" stop-color="#E8E8E8"/>
</linearGradient>
</defs>
</svg>
