<svg width="560" height="245" viewBox="0 0 560 245" fill="none" xmlns="http://www.w3.org/2000/svg">
<path d="M560 0H0V122.5H560V0Z" fill="#FF267E"/>
<path d="M559.992 122.5H421.603V245H559.992V122.5Z" fill="#FF267E"/>
<path d="M95.2268 58.9779H54.2635V47.0785H103.785V30.6263H30.5208V91.8731H54.2635V75.4239H95.2268V58.9779Z" fill="#000055"/>
<path d="M225.385 71.4019L203.647 30.6263H176.415L211.678 91.8731H238.741L274.004 30.6263H247.12L225.385 71.4019Z" fill="#000055"/>
<path d="M331.915 77.171H303.495V67.8954H331.915C334.97 67.8954 337.15 69.8215 337.15 72.5317C337.15 75.2449 334.97 77.171 331.915 77.171ZM303.495 45.3283H329.997C333.051 45.3283 335.235 47.2514 335.235 49.9615C335.235 52.6748 333.051 54.6009 329.997 54.6009H303.495V45.3283ZM350.053 60.7712C356.243 57.7493 359.15 52.9803 359.15 47.6002C359.15 37.5374 350.685 30.6263 334.012 30.6263H280.362V91.8731H335.235C353.13 91.8731 361.069 84.786 361.069 74.5473C361.069 68.8214 357.613 63.6234 350.053 60.7712Z" fill="#000055"/>
<path d="M396.075 67.8985H436.952V54.604H396.075V47.0816H441.27V30.6263H372.333V91.8762H442.344V75.424H396.075V67.8985Z" fill="#000055"/>
<path d="M452.192 30.6263V47.0754H478.829V91.8731H502.837V47.0754H529.478V30.6263H452.192Z" fill="#000055"/>
<path d="M134.56 66.9293L144.987 47.2143L155.411 66.9293H134.56ZM131.412 30.6263L96.1462 91.8731H121.373L126.143 82.8537H163.83L168.6 91.8731H194.871L159.608 30.6263H131.412Z" fill="#000055"/>
<path d="M444.938 183.719L465.044 219.269L490.834 219.272L470.728 183.722L444.938 183.719Z" fill="#000055"/>
<path d="M510.93 183.697L490.826 219.248L516.614 219.246L536.718 183.695L510.93 183.697Z" fill="#000055"/>
<path d="M490.774 148.256L470.668 183.726H510.877L490.774 148.256Z" fill="#000055"/>
</svg>
