<svg width="90" height="99" viewBox="0 0 90 99" fill="none" xmlns="http://www.w3.org/2000/svg">
<path d="M-0.694508 15.7209V9.44429H-7V6.30597H-0.694508V0H2.44397V6.30597H8.72093V9.44429H2.44397V15.7209H-0.694508Z" fill="#FF267E"/>
<path d="M53.2059 15.7209V9.44429H46.9004V6.30597H53.2059V0H56.3444V6.30597H62.6213V9.44429H56.3444V15.7209H53.2059Z" fill="#FF267E"/>
<path d="M26.2557 15.7209V9.44429H19.9502V6.30597H26.2557V0H29.3942V6.30597H35.6711V9.44429H29.3942V15.7209H26.2557Z" fill="#FF267E"/>
<path d="M80.1561 15.7209V9.44429H73.8506V6.30597H80.1561V0H83.2946V6.30597H89.5715V9.44429H83.2946V15.7209H80.1561Z" fill="#FF267E"/>
<path d="M-0.694508 70.7441V64.4675H-7V61.3292H-0.694508V55.0232H2.44397V61.3292H8.72093V64.4675H2.44397V70.7441H-0.694508Z" fill="#FF267E"/>
<path d="M53.2059 70.7441V64.4675H46.9004V61.3292H53.2059V55.0232H56.3444V61.3292H62.6213V64.4675H56.3444V70.7441H53.2059Z" fill="#FF267E"/>
<path d="M26.2557 70.7441V64.4675H19.9502V61.3292H26.2557V55.0232H29.3942V61.3292H35.6711V64.4675H29.3942V70.7441H26.2557Z" fill="#FF267E"/>
<path d="M80.1561 70.7441V64.4675H73.8506V61.3292H80.1561V55.0232H83.2946V61.3292H89.5715V64.4675H83.2946V70.7441H80.1561Z" fill="#FF267E"/>
<path d="M-0.694508 43.2326V36.956H-7V33.8177H-0.694508V27.5117H2.44397V33.8177H8.72093V36.956H2.44397V43.2326H-0.694508Z" fill="#FF267E"/>
<path d="M53.2059 43.2326V36.956H46.9004V33.8177H53.2059V27.5117H56.3444V33.8177H62.6213V36.956H56.3444V43.2326H53.2059Z" fill="#FF267E"/>
<path d="M26.2557 43.2326V36.956H19.9502V33.8177H26.2557V27.5117H29.3942V33.8177H35.6711V36.956H29.3942V43.2326H26.2557Z" fill="#FF267E"/>
<path d="M80.1561 43.2326V36.956H73.8506V33.8177H80.1561V27.5117H83.2946V33.8177H89.5715V36.956H83.2946V43.2326H80.1561Z" fill="#FF267E"/>
<path d="M-0.694508 98.2558V91.9792H-7V88.8409H-0.694508V82.5349H2.44397V88.8409H8.72093V91.9792H2.44397V98.2558H-0.694508Z" fill="#FF267E"/>
<path d="M53.2059 98.2558V91.9792H46.9004V88.8409H53.2059V82.5349H56.3444V88.8409H62.6213V91.9792H56.3444V98.2558H53.2059Z" fill="#FF267E"/>
<path d="M26.2557 98.2558V91.9792H19.9502V88.8409H26.2557V82.5349H29.3942V88.8409H35.6711V91.9792H29.3942V98.2558H26.2557Z" fill="#FF267E"/>
<path d="M80.1561 98.2558V91.9792H73.8506V88.8409H80.1561V82.5349H83.2946V88.8409H89.5715V91.9792H83.2946V98.2558H80.1561Z" fill="#FF267E"/>
</svg>
