<svg width="79" height="67" viewBox="0 0 79 67" fill="none" xmlns="http://www.w3.org/2000/svg">
<path d="M76.6779 33.5C76.6779 51.0324 60.0544 65.5944 39.0835 65.5944C18.1126 65.5944 1.48903 51.0324 1.48903 33.5C1.48903 15.9676 18.1126 1.40556 39.0835 1.40556C60.0544 1.40556 76.6779 15.9676 76.6779 33.5Z" fill="#FF267E" stroke="#000055" stroke-width="2.81113"/>
<path d="M23.5466 21.9499L29.2309 40.2707L34.7607 21.9499H38.9004L31.2389 45.05H27.0375L19.2834 21.9499H23.5466Z" fill="#000055"/>
<path d="M46.4383 34.5673C45.5527 34.3761 44.7186 34.1212 43.936 33.8026C43.1533 33.4628 42.4634 33.0273 41.8661 32.4963C41.2895 31.9652 40.8261 31.3386 40.476 30.6164C40.1464 29.8729 39.9817 29.0127 39.9817 28.0355C39.9817 26.9522 40.2288 26.007 40.7231 25.1998C41.2174 24.3926 41.8661 23.7235 42.6694 23.1925C43.4726 22.6402 44.3788 22.226 45.3879 21.9499C46.3971 21.6737 47.4166 21.5356 48.4463 21.5356C49.5585 21.5356 50.5986 21.6737 51.5665 21.9499C52.5345 22.2048 53.3995 22.619 54.1615 23.1925C54.9236 23.7448 55.562 24.4564 56.0769 25.3273C56.6124 26.1769 56.9934 27.2071 57.22 28.4179H53.4201C53.2554 27.7169 52.9979 27.1434 52.6478 26.6973C52.2977 26.23 51.8858 25.8689 51.4121 25.614C50.9384 25.3379 50.4235 25.1467 49.8674 25.0405C49.3319 24.913 48.7862 24.8493 48.2301 24.8493C47.7976 24.8493 47.3239 24.9024 46.809 25.0086C46.3147 25.1148 45.8513 25.2954 45.4188 25.5503C45.0069 25.7839 44.6568 26.092 44.3685 26.4743C44.0801 26.8566 43.936 27.3346 43.936 27.9081C43.936 28.8002 44.2449 29.4906 44.8628 29.9791C45.5012 30.4465 46.3044 30.7757 47.2724 30.9669L50.0219 31.5085C51.0105 31.6997 51.9578 31.9546 52.864 32.2732C53.7908 32.5706 54.6043 32.9848 55.3046 33.5159C56.0254 34.0469 56.6021 34.7054 57.0346 35.4913C57.4671 36.2773 57.6833 37.2544 57.6833 38.4227C57.6833 39.5909 57.4259 40.6211 56.911 41.5133C56.3961 42.3842 55.7165 43.117 54.8721 43.7118C54.0483 44.2853 53.1009 44.7208 52.0299 45.0181C50.9796 45.3155 49.8983 45.4642 48.7862 45.4642C47.4475 45.4642 46.222 45.2837 45.1099 44.9226C44.0183 44.5615 43.0607 44.041 42.2369 43.3613C41.4336 42.6603 40.7849 41.8107 40.2906 40.8123C39.7963 39.814 39.4874 38.6776 39.3638 37.4031H43.2254C43.5755 38.9962 44.2346 40.1857 45.2026 40.9716C46.1706 41.7576 47.4269 42.1505 48.9715 42.1505C49.6306 42.1505 50.2484 42.0762 50.8251 41.9275C51.4224 41.7788 51.9373 41.5558 52.3698 41.2584C52.8023 40.961 53.1421 40.5999 53.3892 40.1751C53.6364 39.729 53.7599 39.2298 53.7599 38.6776C53.7599 38.0828 53.6158 37.5836 53.3274 37.18C53.0597 36.7764 52.6993 36.4366 52.2462 36.1604C51.8137 35.8843 51.3194 35.6719 50.7633 35.5232C50.2278 35.3533 49.6924 35.2152 49.1569 35.109L46.4383 34.5673Z" fill="#000055"/>
</svg>
