<svg width="341" height="372" viewBox="0 0 341 372" fill="none" xmlns="http://www.w3.org/2000/svg">
<path fill-rule="evenodd" clip-rule="evenodd" d="M221.429 74.6998C159.598 39.002 80.5388 60.1867 44.8414 122.018C9.14256 183.85 30.327 262.913 92.1588 298.611C153.99 334.31 233.049 313.124 268.746 251.293C304.444 189.462 283.26 110.398 221.429 74.6998ZM224.585 69.239C159.74 31.7989 76.8151 54.0177 39.3754 118.865C1.93953 183.713 24.1581 266.633 89.0034 304.072C153.848 341.512 236.773 319.293 274.213 254.447C311.652 189.599 289.429 106.678 224.585 69.239Z" fill="#1B1B94"/>
<path d="M160.662 187.159L226.865 71.3252L221.492 68.1909L155.282 184.024L160.662 187.159Z" fill="#1B1B94"/>
<path fill-rule="evenodd" clip-rule="evenodd" d="M91.7886 305.666C156.191 340.796 237.279 318.427 274.251 254.794L166.099 192.564C163.613 196.54 158.91 198.368 154.521 197.376L91.7886 305.666ZM147.37 181.788C145.153 185.921 145.917 190.89 148.972 194.181L86.2394 302.469C23.5739 264.426 2.50598 183.305 39.3002 119.609L147.37 181.788Z" fill="#1B1B94"/>
<path d="M147.217 181.448C150.343 176.305 157.285 174.542 162.712 177.512C168.14 180.481 170.001 187.058 166.867 192.201L147.217 181.448Z" fill="#1B1B94"/>
<path fill-rule="evenodd" clip-rule="evenodd" d="M334.33 134.514L331.413 135.312C329.367 127.885 326.815 120.504 323.741 113.209C320.672 105.914 317.168 98.9314 313.281 92.2755L315.897 90.7583C319.849 97.5269 323.413 104.627 326.535 112.042C329.657 119.457 332.252 126.962 334.33 134.514ZM286.756 53.2582L284.63 55.4012C273.41 44.3413 260.85 34.8924 247.327 27.2128L248.829 24.5935C262.573 32.4019 275.354 42.0106 286.756 53.2582ZM204.754 6.64976L203.979 9.56504C188.932 5.61204 173.32 3.59022 157.54 3.65833L157.524 0.642777C173.573 0.574131 189.449 2.63026 204.754 6.64976ZM110.364 7.0788L111.161 9.98657C103.705 12.0239 96.2972 14.5649 88.9756 17.6266C81.654 20.6882 74.6447 24.1768 67.961 28.051L66.4386 25.4451C73.2342 21.5055 80.362 17.9585 87.8021 14.8464C95.2475 11.7338 102.779 9.15049 110.364 7.0788ZM28.7936 54.4708L30.9449 56.5918C19.8429 67.7649 10.3572 80.2808 2.64848 93.7498L0.0186154 92.2567C7.85759 78.561 17.5033 65.8337 28.7936 54.4708ZM334.761 243.619L331.838 242.85C335.806 227.858 337.835 212.306 337.765 196.585L340.791 196.572C340.861 212.56 338.799 228.374 334.761 243.619Z" fill="white"/>
<path fill-rule="evenodd" clip-rule="evenodd" d="M197.176 371.272L196.379 368.365C203.835 366.327 211.243 363.786 218.565 360.725C225.886 357.663 232.895 354.174 239.579 350.3L241.102 352.906C234.306 356.846 227.178 360.393 219.738 363.505C212.293 366.617 204.761 369.201 197.176 371.272ZM278.747 323.88L276.595 321.759C287.697 310.586 297.183 298.07 304.892 284.601L307.522 286.095C299.683 299.79 290.037 312.518 278.747 323.88Z" fill="white"/>
</svg>
