<svg width="234" height="253" viewBox="0 0 234 253" fill="none" xmlns="http://www.w3.org/2000/svg">
<circle cx="127.807" cy="155.587" r="87.7589" transform="rotate(-161.779 127.807 155.587)" stroke="#1B1B94" stroke-width="6"/>
<path d="M130.032 155.579L158.191 70.0391L154.182 68.7191L126.022 154.259L130.032 155.579Z" fill="#1B1B94"/>
<path fill-rule="evenodd" clip-rule="evenodd" d="M101.409 242.447C148.361 256.724 198.355 230.974 213.835 184.15L134.546 158.048C133.464 160.997 130.64 162.839 127.633 162.786L101.409 242.447ZM120.815 153.528C119.934 156.543 121.112 159.702 123.562 161.446L97.3385 241.105C51.1276 224.677 26.2357 174.289 41.5903 127.448L120.815 153.528Z" fill="#1B1B94"/>
<path d="M120.889 153.292C122.138 149.498 126.225 147.435 130.019 148.684C133.813 149.933 135.876 154.021 134.627 157.814L120.889 153.292Z" fill="#1B1B94"/>
<rect x="101.213" y="243.123" width="4.22134" height="4.9249" transform="rotate(-161.779 101.213 243.123)" fill="#000055"/>
<path fill-rule="evenodd" clip-rule="evenodd" d="M225.34 101.633L223.884 102.733C221.074 99.0124 217.992 95.4307 214.636 92.0145C211.281 88.5984 207.754 85.4527 204.085 82.5776L205.21 81.1409C208.942 84.0646 212.527 87.2629 215.938 90.7355C219.35 94.2082 222.484 97.8497 225.34 101.633ZM167.815 54.8566L167.102 56.5368C158.342 52.8204 149.187 50.3101 139.892 49.0088L140.145 47.2013C149.596 48.5244 158.906 51.077 167.815 54.8566ZM111.436 46.9454L111.657 48.7571C102.34 49.8926 93.1418 52.2392 84.3163 55.799L83.6336 54.1063C92.6091 50.4861 101.963 48.0999 111.436 46.9454ZM58.6548 68.2499L59.7546 69.7065C56.0344 72.5157 52.4527 75.598 49.0365 78.9538C45.6203 82.3096 42.4747 85.8358 39.5996 89.5054L38.1629 88.3797C41.0865 84.6482 44.2848 81.0631 47.7575 77.6518C51.2301 74.2405 54.8717 71.1066 58.6548 68.2499ZM23.5762 113.103L25.2565 113.815C21.54 122.576 19.0297 131.731 17.7284 141.026L15.9209 140.773C17.2441 131.322 19.7966 122.012 23.5762 113.103Z" fill="white"/>
</svg>
