<svg width="402" height="175" viewBox="0 0 402 175" fill="none" xmlns="http://www.w3.org/2000/svg">
<path d="M401.59 0H0.647949V87.5H401.59V0Z" fill="#FF267E"/>
<path d="M401.584 87.5H302.502V175H401.584V87.5Z" fill="#FF267E"/>
<path d="M68.8274 42.1271H39.4991V33.6276H74.9546V21.876H22.5V65.6237H39.4991V53.8743H68.8274V42.1271Z" fill="#000055"/>
<path d="M162.016 51.0015L146.453 21.876H126.956L152.203 65.6237H171.579L196.826 21.876H177.578L162.016 51.0015Z" fill="#000055"/>
<path d="M238.289 55.1222H217.94V48.4968H238.289C240.476 48.4968 242.037 49.8726 242.037 51.8084C242.037 53.7464 240.476 55.1222 238.289 55.1222ZM217.94 32.3775H236.915C239.102 32.3775 240.665 33.7511 240.665 35.6869C240.665 37.6249 239.102 39.0007 236.915 39.0007H217.94V32.3775ZM251.275 43.4081C255.707 41.2496 257.788 37.8432 257.788 34.0002C257.788 26.8125 251.727 21.876 239.79 21.876H201.378V65.6237H240.665C253.477 65.6237 259.161 60.5615 259.161 53.2482C259.161 49.1582 256.688 45.4454 251.275 43.4081Z" fill="#000055"/>
<path d="M284.225 48.499H313.492V39.0029H284.225V33.6298H316.583V21.876H267.226V65.626H317.352V53.8743H284.225V48.499Z" fill="#000055"/>
<path d="M324.403 21.876V33.6254H343.474V65.6237H360.663V33.6254H379.737V21.876H324.403Z" fill="#000055"/>
<path d="M96.9881 47.8067L104.454 33.7246L111.917 47.8067H96.9881ZM94.7348 21.876L69.4854 65.6237H87.5471L90.9624 59.1813H117.945L121.36 65.6237H140.169L114.922 21.876H94.7348Z" fill="#000055"/>
<path d="M319.209 131.228L333.604 156.62L352.069 156.623L337.674 131.23L319.209 131.228Z" fill="#000055"/>
<path d="M366.457 131.212L352.063 156.606L370.527 156.605L384.921 131.211L366.457 131.212Z" fill="#000055"/>
<path d="M352.026 105.897L337.631 131.233H366.419L352.026 105.897Z" fill="#000055"/>
</svg>
