<svg width="207" height="90" viewBox="0 0 207 90" fill="none" xmlns="http://www.w3.org/2000/svg">
<path d="M206.25 0H0V45H206.25V0Z" fill="#FF267E"/>
<path d="M50.969 45H0V90H50.969V45Z" fill="#FF267E"/>
<path d="M35.0724 21.6654H19.9855V17.2942H38.2243V11.2505H11.2409V33.7493H19.9855V27.7068H35.0724V21.6654Z" fill="#000055"/>
<path d="M83.0103 26.2293L75.0041 11.2505H64.9745L77.9621 33.7493H87.9293L100.917 11.2505H91.0154L83.0103 26.2293Z" fill="#000055"/>
<path d="M122.246 28.3486H111.778V24.9412H122.246C123.371 24.9412 124.174 25.6487 124.174 26.6443C124.174 27.641 123.371 28.3486 122.246 28.3486ZM111.778 16.6512H121.539C122.664 16.6512 123.468 17.3577 123.468 18.3532C123.468 19.3499 122.664 20.0575 121.539 20.0575H111.778V16.6512ZM128.926 22.3242C131.206 21.2141 132.276 19.4622 132.276 17.4858C132.276 13.7893 129.158 11.2505 123.018 11.2505H103.258V33.7493H123.468C130.059 33.7493 132.983 31.1459 132.983 27.3848C132.983 25.2814 131.71 23.3719 128.926 22.3242Z" fill="#000055"/>
<path d="M145.876 24.9423H160.931V20.0586H145.876V17.2953H162.521V11.2505H137.131V33.7505H162.917V27.7068H145.876V24.9423Z" fill="#000055"/>
<path d="M166.544 11.2505V17.293H176.355V33.7493H185.197V17.293H195.009V11.2505H166.544Z" fill="#000055"/>
<path d="M49.5587 24.5863L53.399 17.3441L57.2382 24.5863H49.5587ZM48.3995 11.2505L35.4109 33.7493H44.7021L46.4589 30.4361H60.3391L62.0959 33.7493H71.7716L58.7841 11.2505H48.3995Z" fill="#000055"/>
<path d="M8.59433 67.4885L15.9995 80.5477L25.4979 80.5488L18.0928 67.4896L8.59433 67.4885Z" fill="#000055"/>
<path d="M32.8992 67.4806L25.4949 80.5403L34.9928 80.5395L42.3971 67.4798L32.8992 67.4806Z" fill="#000055"/>
<path d="M25.4759 54.4615L18.0709 67.4911H32.8799L25.4759 54.4615Z" fill="#000055"/>
</svg>
