<svg width="207" height="90" viewBox="0 0 207 90" fill="none" xmlns="http://www.w3.org/2000/svg">
<path d="M206.25 0H0V45H206.25V0Z" fill="#FF267E"/>
<path d="M50.969 45H0V90H50.969V45Z" fill="#FF267E"/>
<path d="M35.0722 21.6654H19.9853V17.2942H38.2241V11.2505H11.2407V33.7493H19.9853V27.7068H35.0722V21.6654Z" fill="#000055"/>
<path d="M83.0104 26.2293L75.0042 11.2505H64.9746L77.9621 33.7493H87.9293L100.917 11.2505H91.0155L83.0104 26.2293Z" fill="#000055"/>
<path d="M122.246 28.3486H111.778V24.9412H122.246C123.371 24.9412 124.174 25.6488 124.174 26.6443C124.174 27.641 123.371 28.3486 122.246 28.3486ZM111.778 16.6513H121.539C122.664 16.6513 123.468 17.3577 123.468 18.3532C123.468 19.3499 122.664 20.0575 121.539 20.0575H111.778V16.6513ZM128.926 22.3242C131.206 21.2141 132.276 19.4622 132.276 17.4858C132.276 13.7893 129.158 11.2505 123.018 11.2505H103.258V33.7493H123.468C130.059 33.7493 132.983 31.1459 132.983 27.3848C132.983 25.2814 131.71 23.3719 128.926 22.3242Z" fill="#000055"/>
<path d="M145.876 24.9423H160.931V20.0586H145.876V17.2953H162.521V11.2505H137.131V33.7505H162.917V27.7068H145.876V24.9423Z" fill="#000055"/>
<path d="M166.544 11.2505V17.293H176.355V33.7493H185.197V17.293H195.009V11.2505H166.544Z" fill="#000055"/>
<path d="M49.5584 24.5863L53.3988 17.3441L57.238 24.5863H49.5584ZM48.3993 11.2505L35.4106 33.7493H44.7019L46.4587 30.4361H60.3389L62.0957 33.7493H71.7714L58.7839 11.2505H48.3993Z" fill="#000055"/>
<path d="M8.59424 67.4885L15.9994 80.5477L25.4979 80.5488L18.0927 67.4896L8.59424 67.4885Z" fill="#000055"/>
<path d="M32.8992 67.4806L25.4949 80.5403L34.9928 80.5395L42.3971 67.4798L32.8992 67.4806Z" fill="#000055"/>
<path d="M25.4759 54.4614L18.0708 67.4911H32.8798L25.4759 54.4614Z" fill="#000055"/>
</svg>
