<svg width="208" height="152" viewBox="0 0 208 152" fill="none" xmlns="http://www.w3.org/2000/svg">
<path d="M13.53 92.7673V79.299H0V72.5649H13.53V59.0337H20.264V72.5649H33.732V79.299H20.264V92.7673H13.53Z" fill="#FF267E"/>
<path d="M129.192 92.7673V79.299H115.662V72.5649H129.192V59.0337H135.922V72.5649H149.392V79.299H135.922V92.7673H129.192Z" fill="#FF267E"/>
<path d="M71.3619 92.7673V79.299H57.8319V72.5649H71.3619V59.0337H78.0919V72.5649H91.5619V79.299H78.0919V92.7673H71.3619Z" fill="#FF267E"/>
<path d="M187.012 92.7673V79.299H173.482V72.5649H187.012V59.0337H193.752V72.5649H207.222V79.299H193.752V92.7673H187.012Z" fill="#FF267E"/>
<path d="M13.53 33.7335V20.2652H0V13.5311H13.53V0H20.264V13.5311H33.732V20.2652H20.264V33.7335H13.53Z" fill="#FF267E"/>
<path d="M129.192 33.7335V20.2652H115.662V13.5311H129.192V0H135.922V13.5311H149.392V20.2652H135.922V33.7335H129.192Z" fill="#FF267E"/>
<path d="M71.3619 33.7335V20.2652H57.8319V13.5311H71.3619V0H78.0919V13.5311H91.5619V20.2652H78.0919V33.7335H71.3619Z" fill="#FF267E"/>
<path d="M187.012 33.7335V20.2652H173.482V13.5311H187.012V0H193.752V13.5311H207.222V20.2652H193.752V33.7335H187.012Z" fill="#FF267E"/>
<path d="M13.53 151.801V138.333H0V131.598H13.53V118.067H20.264V131.598H33.732V138.333H20.264V151.801H13.53Z" fill="#FF267E"/>
<path d="M129.192 151.801V138.333H115.662V131.598H129.192V118.067H135.922V131.598H149.392V138.333H135.922V151.801H129.192Z" fill="#FF267E"/>
<path d="M71.3619 151.801V138.333H57.8319V131.598H71.3619V118.067H78.0919V131.598H91.5619V138.333H78.0919V151.801H71.3619Z" fill="#FF267E"/>
<path d="M187.012 151.801V138.333H173.482V131.598H187.012V118.067H193.752V131.598H207.222V138.333H193.752V151.801H187.012Z" fill="#FF267E"/>
</svg>
