<svg width="207" height="211" viewBox="0 0 207 211" fill="none" xmlns="http://www.w3.org/2000/svg">
<path d="M13.502 33.6632V20.2231H0V13.503H13.502V0H20.2224V13.503H33.6632V20.2231H20.2224V33.6632H13.502Z" fill="#FF267E"/>
<path d="M128.919 33.6633V20.2231H115.417V13.503H128.919V7.62939e-06H135.639V13.503H149.08V20.2231H135.639V33.6633H128.919Z" fill="#FF267E"/>
<path d="M71.2105 33.6633V20.2231H57.7085V13.503H71.2105V7.62939e-06H77.9309V13.503H91.3717V20.2231H77.9309V33.6633H71.2105Z" fill="#FF267E"/>
<path d="M186.627 33.6633V20.2231H173.125V13.503H186.627V7.62939e-06H193.348V13.503H206.789V20.2231H193.348V33.6633H186.627Z" fill="#FF267E"/>
<path d="M13.502 151.485V138.044H0V131.324H13.502V117.821H20.2224V131.324H33.6632V138.044H20.2224V151.485H13.502Z" fill="#FF267E"/>
<path d="M128.919 151.485V138.044H115.417V131.324H128.919V117.821H135.639V131.324H149.08V138.044H135.639V151.485H128.919Z" fill="#FF267E"/>
<path d="M71.2105 151.485V138.044H57.7085V131.324H71.2105V117.821H77.9309V131.324H91.3717V138.044H77.9309V151.485H71.2105Z" fill="#FF267E"/>
<path d="M186.627 151.485V138.044H173.125V131.324H186.627V117.821H193.348V131.324H206.789V138.044H193.348V151.485H186.627Z" fill="#FF267E"/>
<path d="M13.502 92.5739V79.1338H0V72.4137H13.502V58.9107H20.2224V72.4137H33.6632V79.1338H20.2224V92.5739H13.502Z" fill="#FF267E"/>
<path d="M128.919 92.5739V79.1338H115.417V72.4137H128.919V58.9107H135.639V72.4137H149.08V79.1338H135.639V92.5739H128.919Z" fill="#FF267E"/>
<path d="M71.2105 92.5739V79.1338H57.7085V72.4137H71.2105V58.9107H77.9309V72.4137H91.3717V79.1338H77.9309V92.5739H71.2105Z" fill="#FF267E"/>
<path d="M186.627 92.5739V79.1338H173.125V72.4137H186.627V58.9107H193.348V72.4137H206.789V79.1338H193.348V92.5739H186.627Z" fill="#FF267E"/>
<path d="M13.502 210.395V196.955H0V190.235H13.502V176.732H20.2224V190.235H33.6632V196.955H20.2224V210.395H13.502Z" fill="#FF267E"/>
<path d="M128.919 210.395V196.955H115.417V190.235H128.919V176.732H135.639V190.235H149.08V196.955H135.639V210.395H128.919Z" fill="#FF267E"/>
<path d="M71.2105 210.395V196.955H57.7085V190.235H71.2105V176.732H77.9309V190.235H91.3717V196.955H77.9309V210.395H71.2105Z" fill="#FF267E"/>
<path d="M186.627 210.395V196.955H173.125V190.235H186.627V176.732H193.348V190.235H206.789V196.955H193.348V210.395H186.627Z" fill="#FF267E"/>
</svg>
